<?xml version="1.0" standalone="no"?>
<!DOCTYPE svg PUBLIC "-//W3C//DTD SVG 20010904//EN"
 "http://www.w3.org/TR/2001/REC-SVG-20010904/DTD/svg10.dtd">
<!--
 width="1171.000000pt" height="451.000000pt"     THIS IS IF YOU WANT SPECIFIC HEIGHT AND WIDTH
 -->
<svg version="1.0" xmlns="http://www.w3.org/2000/svg"
  height="50.000000pt" 
  viewBox="0 0 1171.000000 451.000000"
 preserveAspectRatio="xMidYMid meet">

<g transform="translate(0.000000,451.000000) scale(0.100000,-0.100000)"
fill="#000000" stroke="none">
<path fill="#eb2424" d="M2205 3974 c-190 -108 -250 -185 -248 -319 1 -85 27 -162 87 -259 95
-154 103 -185 59 -237 -66 -78 -177 -85 -266 -16 -26 20 -77 53 -112 72 -43
25 -65 43 -67 58 -5 33 -73 49 -203 49 -130 0 -198 -16 -203 -49 -2 -15 -24
-33 -70 -59 -37 -20 -87 -53 -111 -72 -60 -49 -143 -62 -203 -31 -109 56 -114
124 -18 265 76 109 116 240 100 326 -13 65 -31 97 -85 151 -43 42 -261 184
-270 176 -2 -2 17 -50 41 -106 51 -116 69 -197 55 -236 -6 -14 -32 -45 -58
-68 -217 -193 -289 -304 -299 -459 -12 -169 33 -289 151 -406 49 -48 92 -81
138 -102 59 -28 67 -35 73 -66 4 -24 -1 -58 -15 -105 -13 -42 -19 -81 -15 -99
5 -27 0 -37 -44 -84 -30 -32 -85 -72 -136 -101 -105 -58 -139 -87 -172 -142
-41 -70 -46 -101 -50 -290 -4 -188 5 -273 35 -340 10 -22 24 -60 31 -85 20
-72 104 -212 170 -285 95 -104 159 -158 221 -188 62 -30 69 -36 95 -91 47 -97
99 -171 137 -195 20 -12 39 -31 42 -42 10 -31 81 -77 154 -100 43 -13 78 -32
101 -54 50 -49 144 -90 205 -90 62 0 160 43 206 91 21 22 52 39 88 50 76 21
138 59 156 93 8 16 29 38 48 50 41 25 87 88 132 182 32 68 38 74 92 100 65 31
172 114 188 145 5 11 27 37 47 57 61 61 178 262 178 306 0 8 9 34 21 57 28 59
45 203 33 280 -6 35 -6 73 -1 90 12 42 1 142 -23 206 -29 77 -79 128 -185 188
-49 28 -114 75 -143 103 -50 48 -53 55 -49 90 4 25 -3 62 -17 105 -33 98 -23
124 63 165 90 42 197 149 241 242 66 139 64 302 -5 443 -37 74 -107 153 -247
280 -57 50 -58 52 -58 105 0 57 18 119 70 236 17 40 30 74 28 75 -2 2 -52 -26
-113 -60z m-1355 -271 c16 -66 -1 -134 -61 -234 -102 -173 -123 -240 -100
-312 17 -52 82 -111 155 -143 l64 -28 -45 -67 c-44 -66 -45 -66 -79 -59 -48
11 -114 47 -152 83 -56 53 -85 121 -90 212 -4 78 1 102 44 220 16 44 -47 -30
-76 -90 -99 -201 -29 -400 180 -509 72 -38 87 -56 48 -56 -80 0 -218 116 -271
227 -29 62 -32 76 -32 168 0 90 3 106 28 157 38 78 99 150 199 238 46 40 93
87 106 105 25 34 32 94 19 160 l-7 40 29 -34 c16 -18 34 -53 41 -78z m1268 52
c-16 -82 2 -127 75 -194 144 -130 209 -205 246 -281 34 -71 36 -80 35 -171 -1
-86 -5 -104 -31 -162 -51 -107 -193 -227 -270 -227 -39 0 -25 18 39 51 76 38
163 119 194 181 64 126 39 301 -59 413 l-35 40 29 -85 c35 -104 38 -186 9
-263 -36 -96 -114 -165 -222 -195 l-36 -10 -45 68 -45 67 56 23 c100 42 172
127 172 204 0 48 -30 120 -89 215 -50 80 -91 180 -91 223 0 41 20 97 47 128
14 17 27 30 28 28 2 -2 -1 -26 -7 -53z m-560 -549 c9 -5 12 -156 12 -615 l0
-608 -58 -41 -59 -41 -56 41 -57 42 0 612 0 613 28 4 c39 7 176 2 190 -7z
m-260 -475 c2 -359 0 -412 -13 -417 -26 -11 -224 35 -285 66 -67 34 -135 106
-152 162 -15 51 -2 101 55 217 55 110 132 216 207 284 59 53 155 110 175 104
6 -2 11 -144 13 -416z m435 362 c114 -77 206 -194 283 -359 24 -51 46 -111 50
-133 13 -79 -62 -177 -172 -228 -52 -24 -214 -63 -261 -63 l-23 0 0 421 0 421
28 -6 c15 -4 57 -27 95 -53z m-859 -691 c82 -72 219 -126 349 -138 43 -4 79
-10 82 -14 2 -3 1 -32 -2 -63 l-6 -57 -38 0 c-55 0 -175 25 -244 51 -98 36
-164 88 -225 174 l-28 41 16 62 17 62 22 -43 c12 -24 38 -58 57 -75z m1262
-16 c-8 -31 -87 -119 -140 -155 -61 -42 -175 -80 -282 -93 -51 -7 -95 -10 -97
-7 -2 2 -7 30 -11 62 -7 66 -16 60 108 76 172 23 324 106 376 205 l25 46 14
-55 c7 -30 10 -66 7 -79z m-1441 -317 c-9 -35 -30 -88 -46 -118 -17 -29 -28
-55 -25 -58 11 -12 74 40 111 92 34 47 41 53 43 35 6 -35 -16 -145 -58 -291
-38 -135 -40 -137 -97 -195 -46 -47 -64 -75 -87 -137 l-30 -79 -30 59 -29 58
28 80 c15 44 50 126 76 183 44 94 46 103 26 96 -49 -14 -87 -37 -141 -86 l-58
-51 7 49 c10 73 65 180 134 259 52 60 58 70 41 73 -11 2 -45 -8 -75 -22 -30
-14 -55 -21 -55 -17 0 12 51 55 118 100 64 43 78 45 40 4 -16 -17 -18 -23 -7
-23 18 0 103 53 115 72 16 25 16 -18 -1 -83z m1585 32 c52 -31 69 -27 35 9
-16 17 -25 30 -19 30 17 -1 157 -105 172 -128 l15 -22 -54 25 c-30 14 -67 25
-82 25 -28 0 -27 -2 35 -69 77 -84 124 -167 136 -244 5 -31 7 -59 4 -61 -2 -3
-25 16 -51 41 -41 42 -146 102 -157 91 -2 -3 20 -56 50 -119 29 -63 64 -143
76 -179 l23 -65 -27 -53 c-24 -47 -46 -61 -46 -29 0 35 -71 156 -114 194 -45
40 -47 44 -91 197 -42 148 -70 314 -48 291 5 -5 27 -34 47 -63 34 -46 90 -91
102 -79 2 2 -9 28 -26 58 -29 53 -60 154 -60 193 0 19 0 19 23 -1 12 -12 38
-30 57 -42z m-1042 -23 c34 -8 40 -13 31 -24 -25 -30 -125 -10 -160 32 -13 16
-10 17 36 10 28 -4 69 -12 93 -18z m561 6 c-34 -41 -133 -60 -158 -30 -10 12
-2 16 46 26 32 7 63 14 68 15 6 2 21 4 34 4 20 1 22 -1 10 -15z m-724 -44 c33
-28 74 -53 92 -56 36 -7 98 -2 126 10 13 6 17 3 17 -12 0 -14 22 -36 67 -68
36 -26 71 -47 77 -47 24 0 146 97 146 116 0 14 4 17 18 11 27 -12 89 -17 125
-10 19 3 59 28 92 56 33 28 64 50 71 50 6 0 14 -14 18 -31 9 -44 -27 -102 -93
-153 -30 -22 -56 -48 -59 -56 -4 -12 -2 -13 9 -2 31 29 38 11 13 -38 l-25 -51
-30 25 c-28 24 -38 28 -91 40 -16 4 -32 17 -40 33 -7 15 -22 29 -33 31 -19 3
-19 2 -2 -11 27 -22 22 -54 -10 -62 -16 -3 -42 -17 -60 -31 -39 -30 -56 -30
-96 -1 -17 12 -44 27 -61 33 -39 14 -42 27 -15 53 20 18 20 21 5 21 -9 0 -25
-14 -34 -30 -17 -30 -21 -32 -74 -44 -14 -3 -40 -18 -58 -32 -17 -15 -32 -25
-33 -23 -1 2 -12 25 -25 52 -15 33 -18 47 -9 47 7 0 19 -6 26 -12 11 -11 13
-10 9 2 -2 8 -31 35 -63 60 -68 53 -100 105 -90 150 4 16 12 30 18 30 7 0 39
-23 72 -50z m274 -280 c44 -20 44 -20 25 -41 -19 -21 -98 -79 -108 -79 -2 0 7
20 21 45 13 25 20 45 15 45 -5 0 -39 -31 -76 -70 -64 -68 -67 -70 -113 -70
-27 0 -55 5 -63 10 -12 8 -9 10 13 10 18 0 36 9 50 26 69 82 94 107 126 124
45 24 56 24 110 0z m334 -10 c25 -16 62 -51 82 -79 37 -51 51 -61 88 -61 18 0
19 -2 7 -10 -8 -5 -37 -10 -64 -10 -48 0 -51 1 -117 73 -71 77 -97 85 -55 18
15 -23 24 -41 20 -41 -17 0 -124 87 -124 101 0 8 76 37 101 38 8 1 36 -12 62
-29z m-883 -86 c-29 -154 -42 -305 -38 -467 1 -81 2 -147 0 -147 -13 0 -62 34
-85 58 -28 29 -29 33 -22 98 17 188 36 279 75 359 21 44 48 108 60 143 13 34
24 61 26 59 2 -2 -5 -48 -16 -103z m1344 -18 c26 -60 51 -115 56 -121 14 -16
37 -152 49 -285 l10 -105 -27 -28 c-22 -24 -72 -57 -84 -57 -2 0 -2 59 0 131
5 149 -11 341 -39 477 -28 138 -27 137 35 -12z m-610 -42 l24 -29 -21 -8 c-24
-9 -172 -6 -182 4 -7 8 33 53 55 62 8 4 34 5 57 3 31 -3 48 -11 67 -32z m-63
-274 c7 -44 16 -80 20 -80 4 0 11 20 15 45 8 54 17 62 36 32 22 -33 27 -82 17
-181 -5 -49 -7 -91 -5 -93 10 -10 72 57 92 102 l24 50 0 -40 1 -40 24 30 c14
17 34 53 45 80 10 28 19 46 20 40 0 -5 10 -21 21 -35 l20 -25 -6 61 c-8 76 6
90 30 28 10 -26 46 -76 86 -119 l69 -75 0 -72 c0 -94 -11 -112 -35 -59 -24 53
-96 118 -152 135 l-21 7 20 -63 c14 -44 21 -92 21 -158 1 -85 -2 -101 -28
-155 l-28 -60 -8 79 c-9 84 -32 144 -77 194 -40 45 -49 41 -44 -21 6 -79 -13
-183 -48 -254 -31 -63 -99 -133 -130 -133 -24 0 -97 66 -125 113 -33 57 -55
156 -55 250 0 42 -4 77 -9 77 -14 0 -59 -57 -83 -104 -14 -28 -23 -69 -27
-126 l-6 -85 -30 60 c-28 56 -30 68 -29 165 0 79 5 119 21 163 l20 57 -21 -6
c-60 -17 -139 -88 -158 -141 -20 -54 -28 -38 -28 56 l0 89 59 57 c37 35 71 81
90 118 l30 62 1 -70 1 -70 17 28 c9 15 19 27 22 27 4 0 16 -24 29 -54 12 -30
31 -62 42 -71 18 -18 19 -17 19 16 l1 34 24 -45 c23 -44 80 -108 89 -99 3 3 0
51 -6 106 -11 111 -8 138 21 174 l19 23 12 -59 c15 -70 21 -61 40 52 7 40 16
70 20 68 4 -3 13 -41 21 -85z"/>
<path fill="#eb2424" d="M8540 3150 c-167 -31 -285 -118 -363 -268 -68 -132 -95 -260 -78
-373 14 -87 42 -146 118 -246 227 -296 223 -288 223 -399 0 -132 -52 -224
-128 -224 -78 0 -89 49 -47 215 40 160 54 145 -144 145 -94 0 -172 -3 -174 -7
-3 -5 -19 -70 -36 -146 -65 -291 -30 -445 116 -508 106 -45 294 -50 409 -10
164 58 279 204 349 447 54 188 53 303 -6 423 -18 36 -88 134 -156 218 -158
196 -163 204 -163 277 0 53 3 61 34 92 28 28 42 34 75 34 32 0 44 -5 57 -25
15 -22 15 -30 0 -88 -9 -35 -16 -69 -16 -75 0 -9 45 -12 183 -10 l182 3 13 75
c20 115 12 246 -19 306 -31 60 -91 107 -162 128 -66 19 -206 28 -267 16z"/>
<path fill="#eb2424" d="M10034 3151 c-171 -27 -293 -116 -385 -281 -56 -99 -73 -156 -173
-595 -36 -154 -81 -350 -100 -436 -41 -179 -45 -250 -15 -337 42 -124 145
-192 303 -199 259 -13 463 108 551 326 21 50 115 428 115 460 0 8 -52 11 -179
11 l-179 0 -12 -52 c-72 -314 -83 -350 -121 -383 -38 -31 -88 -33 -114 -5 -15
16 -17 30 -12 81 4 33 13 84 21 112 8 29 23 93 35 142 11 50 31 137 45 195 14
58 34 146 46 195 88 376 88 375 126 410 33 31 93 34 117 7 26 -29 24 -46 -28
-272 -7 -30 -16 -67 -20 -82 l-7 -28 179 0 178 0 43 183 c49 212 54 304 21
377 -49 109 -148 165 -309 174 -41 3 -98 1 -126 -3z"/>
<path fill="#eb2424" d="M10980 3150 c-233 -45 -372 -194 -435 -465 -20 -87 -19 -146 4 -228
21 -77 51 -125 180 -287 119 -150 151 -213 151 -296 0 -82 -33 -187 -67 -213
-34 -28 -94 -28 -118 -1 -22 24 -17 104 14 220 11 41 21 85 21 98 l0 22 -172
-2 -172 -3 -8 -30 c-5 -16 -20 -84 -34 -150 -69 -318 -5 -462 222 -504 165
-31 333 4 442 91 153 122 280 459 251 666 -14 100 -58 179 -196 349 -158 196
-163 204 -163 277 0 53 3 61 34 92 41 41 93 47 126 14 24 -24 24 -21 5 -90
-26 -98 -40 -91 168 -88 l182 3 13 75 c20 113 11 247 -20 307 -31 59 -91 107
-161 127 -67 19 -207 28 -267 16z"/>
<path fill="#eb2424" d="M3696 3123 c-3 -10 -19 -79 -36 -153 -16 -74 -37 -162 -45 -195 -8
-33 -28 -121 -45 -195 -17 -74 -35 -153 -40 -175 -5 -22 -32 -139 -60 -260
-28 -121 -57 -247 -65 -280 -13 -55 -37 -158 -100 -439 -14 -60 -25 -111 -25
-113 0 -3 132 -3 293 0 316 4 348 9 447 63 99 54 187 179 244 344 21 63 93
357 126 520 5 25 21 95 35 155 14 61 34 151 45 200 11 50 25 108 31 130 7 22
12 81 12 130 1 73 -3 100 -22 140 -29 65 -52 88 -114 117 -50 22 -62 23 -364
26 -293 3 -312 2 -317 -15z m429 -313 c17 -19 18 -28 8 -93 -6 -40 -23 -121
-38 -182 -14 -60 -37 -157 -50 -215 -13 -58 -43 -186 -66 -285 -22 -99 -48
-209 -55 -245 -26 -117 -59 -150 -151 -150 -63 0 -62 -6 -29 133 14 56 45 192
71 302 25 110 52 227 60 260 8 33 35 150 61 260 25 110 48 208 50 218 8 27
114 24 139 -3z"/>
<path fill="#eb2424" d="M4681 2998 c-18 -79 -39 -170 -46 -203 -8 -33 -37 -159 -65 -280 -28
-121 -57 -247 -65 -280 -120 -510 -133 -589 -115 -695 17 -102 55 -155 145
-200 68 -34 72 -35 195 -35 96 0 138 4 180 19 87 29 154 72 213 135 105 114
136 192 217 551 17 74 37 162 45 195 8 33 35 150 60 260 25 110 52 227 60 260
8 33 28 121 45 195 16 74 35 151 40 171 6 20 10 39 10 43 0 3 -78 6 -174 6
l-174 0 -36 -157 c-57 -244 -76 -321 -97 -413 -11 -47 -27 -112 -34 -145 -170
-731 -171 -732 -213 -765 -37 -30 -97 -27 -118 5 -25 38 -19 70 107 605 11 47
24 103 29 125 5 22 18 78 29 125 97 412 141 603 141 611 0 5 -74 9 -173 9
l-173 0 -33 -142z"/>
<path fill="#eb2424" d="M5725 3128 c-2 -7 -18 -74 -35 -148 -37 -161 -51 -225 -79 -345 -12
-49 -32 -139 -46 -200 -14 -60 -30 -128 -35 -150 -5 -22 -23 -101 -40 -175
-17 -74 -37 -162 -45 -195 -8 -33 -35 -150 -60 -260 -25 -110 -52 -226 -60
-257 -8 -32 -15 -65 -15 -73 0 -13 43 -15 367 -13 l366 3 29 120 c15 66 32
135 37 153 l9 32 -183 0 c-101 0 -186 4 -189 9 -3 4 6 57 19 117 14 60 32 141
41 179 8 39 19 86 24 105 6 19 24 96 40 170 17 74 37 162 45 195 8 33 44 188
80 345 36 157 71 311 79 343 l14 57 -179 0 c-135 0 -181 -3 -184 -12z"/>
<path fill="#eb2424" d="M6543 3088 c-6 -29 -29 -134 -52 -233 -23 -99 -53 -227 -66 -285 -13
-58 -36 -154 -50 -215 -14 -60 -32 -139 -40 -175 -8 -36 -24 -105 -36 -155
-63 -274 -75 -324 -128 -555 -17 -74 -31 -140 -31 -147 0 -11 75 -13 367 -11
l367 3 9 40 c5 22 20 86 33 142 13 57 24 107 24 113 0 6 -65 10 -179 10 -118
0 -182 4 -186 11 -4 6 -2 29 4 52 6 23 24 103 41 177 17 74 37 162 45 195 17
75 130 564 190 825 25 107 49 210 54 228 l9 32 -182 0 -183 0 -10 -52z"/>
<path fill="#eb2424" d="M7350 2993 c-18 -82 -41 -184 -51 -228 -11 -44 -26 -109 -34 -145 -8
-36 -26 -114 -40 -175 -35 -151 -67 -288 -116 -500 -58 -251 -74 -324 -104
-450 -15 -60 -29 -127 -32 -148 l-6 -37 374 2 374 3 12 55 c32 136 63 274 63
282 0 4 -83 8 -184 8 -102 0 -187 3 -190 8 -3 6 48 236 87 394 l7 28 172 2
172 3 12 45 c21 81 64 268 64 279 0 7 -56 11 -171 11 l-171 0 5 23 c3 12 22
93 42 179 l37 158 181 2 181 3 31 135 c18 74 35 152 39 173 l7 37 -364 0 -363
0 -34 -147z"/>
</g>
</svg>
